<svg viewBox="0 0 900 200" xmlns="http://www.w3.org/2000/svg" font-family="'Courier New', monospace">
  <rect width="900" height="200" fill="#0d1117" rx="12"/>
  <rect width="900" height="200" fill="none" stroke="#30363d" stroke-width="1" rx="12"/>

  <text x="450" y="28" text-anchor="middle" fill="#FF6B00" font-size="12" font-weight="bold" letter-spacing="3">PIPELINE DE PROCESSAMENTO</text>

  <!-- Step 1 -->
  <rect x="30" y="55" width="130" height="95" rx="8" fill="#161b22" stroke="#FF6B00" stroke-width="1.5"/>
  <text x="95" y="80" text-anchor="middle" font-size="22">⬇️</text>
  <text x="95" y="102" text-anchor="middle" fill="#FF6B00" font-size="10" font-weight="bold">DOWNLOAD</text>
  <text x="95" y="117" text-anchor="middle" fill="#6b7280" font-size="8">yt-dlp</text>
  <text x="95" y="130" text-anchor="middle" fill="#6b7280" font-size="8">retry 3x</text>
  <text x="95" y="143" text-anchor="middle" fill="#6b7280" font-size="8">ou upload</text>

  <polygon points="165,97 180,90 180,104" fill="#FF6B00"/>
  <line x1="162" y1="97" x2="180" y2="97" stroke="#FF6B00" stroke-width="2"/>

  <!-- Step 2 -->
  <rect x="183" y="55" width="130" height="95" rx="8" fill="#161b22" stroke="#58a6ff" stroke-width="1.5"/>
  <text x="248" y="80" text-anchor="middle" font-size="22">🎯</text>
  <text x="248" y="102" text-anchor="middle" fill="#58a6ff" font-size="10" font-weight="bold">TRACKING</text>
  <text x="248" y="117" text-anchor="middle" fill="#6b7280" font-size="8">MediaPipe</text>
  <text x="248" y="130" text-anchor="middle" fill="#6b7280" font-size="8">Face Detection</text>
  <text x="248" y="143" text-anchor="middle" fill="#6b7280" font-size="8">Zoom 9:16</text>

  <polygon points="318,97 333,90 333,104" fill="#58a6ff"/>
  <line x1="315" y1="97" x2="333" y2="97" stroke="#58a6ff" stroke-width="2"/>

  <!-- Step 3 -->
  <rect x="336" y="55" width="130" height="95" rx="8" fill="#161b22" stroke="#d29922" stroke-width="1.5"/>
  <text x="401" y="80" text-anchor="middle" font-size="22">📝</text>
  <text x="401" y="102" text-anchor="middle" fill="#d29922" font-size="10" font-weight="bold">LEGENDAS</text>
  <text x="401" y="117" text-anchor="middle" fill="#6b7280" font-size="8">Whisper tiny</text>
  <text x="401" y="130" text-anchor="middle" fill="#6b7280" font-size="8">word-by-word</text>
  <text x="401" y="143" text-anchor="middle" fill="#6b7280" font-size="8">ASS + FFmpeg</text>

  <polygon points="471,97 486,90 486,104" fill="#d29922"/>
  <line x1="468" y1="97" x2="486" y2="97" stroke="#d29922" stroke-width="2"/>

  <!-- Step 4 -->
  <rect x="489" y="55" width="130" height="95" rx="8" fill="#161b22" stroke="#3fb950" stroke-width="1.5"/>
  <text x="554" y="80" text-anchor="middle" font-size="22">☁️</text>
  <text x="554" y="102" text-anchor="middle" fill="#3fb950" font-size="10" font-weight="bold">UPLOAD</text>
  <text x="554" y="117" text-anchor="middle" fill="#6b7280" font-size="8">httpx direto</text>
  <text x="554" y="130" text-anchor="middle" fill="#6b7280" font-size="8">timeout 10min</text>
  <text x="554" y="143" text-anchor="middle" fill="#6b7280" font-size="8">Supabase Storage</text>

  <polygon points="624,97 639,90 639,104" fill="#3fb950"/>
  <line x1="621" y1="97" x2="639" y2="97" stroke="#3fb950" stroke-width="2"/>

  <!-- Step 5 -->
  <rect x="642" y="55" width="130" height="95" rx="8" fill="#161b22" stroke="#bc8cff" stroke-width="1.5"/>
  <text x="707" y="80" text-anchor="middle" font-size="22">📱</text>
  <text x="707" y="102" text-anchor="middle" fill="#bc8cff" font-size="10" font-weight="bold">ENTREGA</text>
  <text x="707" y="117" text-anchor="middle" fill="#6b7280" font-size="8">Signed URL 7d</text>
  <text x="707" y="130" text-anchor="middle" fill="#6b7280" font-size="8">SSE notifica</text>
  <text x="707" y="143" text-anchor="middle" fill="#6b7280" font-size="8">Download direto</text>

  <!-- Progress bar -->
  <rect x="30" y="165" width="742" height="6" rx="3" fill="#21262d"/>
  <rect x="30" y="165" width="742" height="6" rx="3" fill="url(#progress)"/>
  <defs>
    <linearGradient id="progress" x1="0%" y1="0%" x2="100%" y2="0%">
      <stop offset="0%" style="stop-color:#FF6B00"/>
      <stop offset="25%" style="stop-color:#58a6ff"/>
      <stop offset="50%" style="stop-color:#d29922"/>
      <stop offset="75%" style="stop-color:#3fb950"/>
      <stop offset="100%" style="stop-color:#bc8cff"/>
    </linearGradient>
  </defs>

  <text x="401" y="188" text-anchor="middle" fill="#30363d" font-size="8">~8–12 min por clipe de 60s em hardware básico</text>
</svg>
